<svg width="128" height="128" xmlns="http://www.w3.org/2000/svg">

 <g>
  <title>background</title>
  <rect fill="none" id="canvas_background" height="402" width="582" y="-1" x="-1"/>
 </g>
 <g>
  <title>Layer 1</title>
  <ellipse ry="48.361428" rx="49.26538" id="svg_4" cy="64.903953" cx="68.745745" stroke-width="1.5" fill="#2aa3e2"/>
  <path fill="#ffffff" id="svg_3" d="m90.234736,47.167964l-30.778,30.777l-11.681,-11.683c-0.781,-0.782 -2.047,-0.782 -2.828,-0.002c-0.781,0.782 -0.781,2.048 0,2.829l14.51,14.513l33.605,-33.607c0.781,-0.779 0.781,-2.046 0,-2.827c-0.781,-0.782 -2.047,-0.782 -2.828,0zm-21.231,-32.619c-27.642,0 -50.129,22.488 -50.129,50.126c0.002,27.642 22.49,50.131 50.131,50.131l0.004,0c27.638,0 50.123,-22.489 50.123,-50.131c0,-27.639 -22.487,-50.126 -50.129,-50.126zm0.006,96.257l-0.004,0c-25.435,0 -46.129,-20.694 -46.131,-46.131c0,-25.434 20.693,-46.126 46.129,-46.126s46.129,20.693 46.129,46.126c0,25.437 -20.69,46.131 -46.123,46.131z"/>
 </g>
</svg>